<svg xmlns="http://www.w3.org/2000/svg" viewBox="0 0 64 64"><g id="Layer_44" data-name="Layer 44"><path fill="white" d="M60,36a1,1,0,0,0,1-1V31.69a1,1,0,0,0-1-1H57.63V4a1,1,0,0,0-1-1H53.45a1,1,0,0,0-1,1V34H50.34a12.24,12.24,0,0,0,.08-2V27.93a.14.14,0,0,1,0-.09l-.37-4.12a5.34,5.34,0,0,0-2.81-4.27l0-.17,4-.66a1,1,0,0,0,.84-1V14.9a1,1,0,0,0-1-1H46.67a.93.93,0,0,0-.56.2l-.31-1.48A4.91,4.91,0,0,0,41,9H23a4.92,4.92,0,0,0-4.78,3.65l-.3,1.43a.93.93,0,0,0-.56-.2H13a1,1,0,0,0-1,1v2.74a1,1,0,0,0,.84,1l4,.66,0,.17A5.34,5.34,0,0,0,14,23.72l-.37,4.12a.14.14,0,0,1,0,.09V32a12.33,12.33,0,0,0,.08,2H11.55V4a1,1,0,0,0-1-1H7.37a1,1,0,0,0-1,1V30.69H4a1,1,0,0,0-1,1V35a1,1,0,0,0,1,1H6.37V55.69H4a1,1,0,0,0-1,1V60a1,1,0,0,0,1,1h9.59a1,1,0,0,0,1-1V56.69a1,1,0,0,0-1-1h-2V36h8.59c.4,0,.92,0,1.19-.3A2.72,2.72,0,0,0,22.75,33h18.5a2.73,2.73,0,0,0,1.42,2.72c.27.33.79.31,1.19.3h8.59V55.69h-2a1,1,0,0,0-1,1V60a1,1,0,0,0,1,1H60a1,1,0,0,0,1-1V56.69a1,1,0,0,0-1-1H57.63V36ZM47.67,15.9H50v.89l-2.33.38ZM16.33,17.17,14,16.79V15.9h2.33ZM8.37,5H9.55V30.69H8.37ZM5,32.69H9.55V34H5ZM12.59,59H5V57.69h7.59Zm-3-3.31H8.37V36H9.55ZM20.13,13.13A2.92,2.92,0,0,1,23,11H41a2.89,2.89,0,0,1,2.82,2.06l1.2,5.7H19ZM27.78,31V30.2h8.44V31Zm16.08,3c-.58,0-.65-.56-.61-1h1.22a1,1,0,1,0,0-2H38.22V29.2a1,1,0,0,0-1-1H26.78a1,1,0,0,0-1,1V31H19.53a1,1,0,0,0,0,2h1.22c0,.46,0,1-.61,1H16.19a.6.6,0,0,1-.61-.6V28l.36-4.07a3.39,3.39,0,0,1,3.4-3.12H44.66a3.39,3.39,0,0,1,3.4,3.12L48.42,28V33.4a.6.6,0,0,1-.61.6ZM55.63,5V30.69H54.45V5ZM54.45,32.69H59V34H54.45ZM59,59H51.41V57.69H59Zm-3.37-3.31H54.45V36h1.18Z"/><path fill="white" d="M47.11,23a2.63,2.63,0,0,0-2.17-.69l-5.16,1a2,2,0,0,0-1.46,1.19c-.73,1.64.89,3.52,2.59,3.47h4.37C47.8,28.07,49,24.66,47.11,23Zm-1.83,3H40.91a.83.83,0,0,1-.75-.54.12.12,0,0,1,0-.16l5.09-1C46.33,24.29,46.24,26,45.28,26Z"/><path fill="white" d="M24.58,23.36l-5.16-1a2.6,2.6,0,0,0-2.17.69c-1.89,1.65-.69,5.06,1.83,5h4.37C26.09,28.09,27.5,24.16,24.58,23.36Zm-.38,2.12a.85.85,0,0,1-.75.54H19.08c-1,0-1-1.72,0-1.73l5.1,1A.14.14,0,0,1,24.2,25.48Z"/><path fill="white" d="M40.67,44a8.67,8.67,0,0,0-3.83-7.2,1,1,0,0,0-1.42.36c-.27.11-.09,5.11-.13,5.39L32,44.42l-3.29-1.9V37.6a1.07,1.07,0,0,0-.23-.62,1,1,0,0,0-1.32-.2c-5.41,3.45-4.92,12.06.83,14.86V55h-2.5a1,1,0,0,0,0,2h13a1,1,0,0,0,0-2H36V51.64A8.62,8.62,0,0,0,40.67,44ZM30,55V51a1,1,0,0,0-.61-.92h0a6.71,6.71,0,0,1-2.67-10.2V43.1a1,1,0,0,0,.5.86c.23.07,4.67,2.85,4.79,2.61.11.24,4.58-2.54,4.79-2.61a1,1,0,0,0,.5-.86V39.91a6.72,6.72,0,0,1-2.67,10.2.93.93,0,0,0-.43.38A.88.88,0,0,0,34,51v4Z"/></g></svg>