<svg xmlns="http://www.w3.org/2000/svg" id="레이어_1" data-name="레이어 1" viewBox="0 0 48 48"><path fill="white" d="M20.5,20.11l2.13.21a.39.39,0,0,1,.25.66l-1.47,1.56a.39.39,0,0,0-.1.35l.45,2.1a.39.39,0,0,1-.55.43l-1.93-.91a.4.4,0,0,0-.37,0L17.06,25.6a.38.38,0,0,1-.58-.39l.27-2.12a.39.39,0,0,0-.13-.34L15,21.32a.39.39,0,0,1,.19-.68l2.11-.4A.39.39,0,0,0,17.6,20l.87-2a.39.39,0,0,1,.7,0l1,1.87A.39.39,0,0,0,20.5,20.11Z"/><path fill="white" d="M10.38,20.11l2.13.21a.39.39,0,0,1,.24.66l-1.46,1.56a.39.39,0,0,0-.1.35l.45,2.1a.39.39,0,0,1-.55.43l-1.94-.91a.38.38,0,0,0-.36,0L6.94,25.6a.39.39,0,0,1-.59-.39l.27-2.12a.38.38,0,0,0-.12-.34L4.9,21.32a.39.39,0,0,1,.19-.68l2.1-.4A.41.41,0,0,0,7.48,20l.86-2A.39.39,0,0,1,9,18l1,1.87A.42.42,0,0,0,10.38,20.11Z"/><path fill="white" d="M30.62,20.11l2.14.21A.39.39,0,0,1,33,21l-1.47,1.56a.41.41,0,0,0-.09.35l.45,2.1a.39.39,0,0,1-.55.43l-1.94-.91a.38.38,0,0,0-.36,0L27.19,25.6a.39.39,0,0,1-.59-.39l.27-2.12a.36.36,0,0,0-.13-.34l-1.59-1.43a.39.39,0,0,1,.18-.68l2.11-.4a.37.37,0,0,0,.28-.22l.87-2a.39.39,0,0,1,.7,0l1,1.87A.41.41,0,0,0,30.62,20.11Z"/><path fill="white" d="M40.75,20.11l2.13.21a.4.4,0,0,1,.25.66l-1.47,1.56a.39.39,0,0,0-.1.35L42,25a.39.39,0,0,1-.55.43l-1.94-.91a.38.38,0,0,0-.36,0L37.31,25.6a.39.39,0,0,1-.59-.39L37,23.09a.38.38,0,0,0-.12-.34l-1.6-1.43a.39.39,0,0,1,.19-.68l2.1-.4a.39.39,0,0,0,.29-.22l.86-2a.4.4,0,0,1,.71,0l1,1.87A.42.42,0,0,0,40.75,20.11Z"/><path fill="white" d="M36.5,17.2a1,1,0,0,1-1-1V10a4,4,0,0,0-4-4H16.54a4,4,0,0,0-4,4V16.2a1,1,0,0,1-2,0V10a6,6,0,0,1,6-6H31.46a6,6,0,0,1,6,6V16.2A1,1,0,0,1,36.5,17.2Z"/><path fill="white" d="M31.46,44H16.54a6,6,0,0,1-6-6V29.56a1,1,0,0,1,2,0V38a4,4,0,0,0,4,4H31.46a4,4,0,0,0,4-4V29.35a1,1,0,1,1,2,0V38A6,6,0,0,1,31.46,44Z"/><path fill="white" d="M24,38.78a2.44,2.44,0,1,1,2.43-2.43A2.43,2.43,0,0,1,24,38.78Zm0-2.87a.44.44,0,1,0,.43.44A.44.44,0,0,0,24,35.91Z"/></svg>